Coordinates
version=1
nRows=7
nColumns=40
inDegrees=yes

Units are S.I. units (second, meters, Newtons, ...)
If the header above contains a line with 'inDegrees', this indicates whether rotational values are in degrees (yes) or radians (no).

endheader
time	pelvis_tilt	pelvis_list	pelvis_rotation	pelvis_tx	pelvis_ty	pelvis_tz	hip_flexion_r	hip_adduction_r	hip_rotation_r	knee_angle_r	knee_angle_r_beta	ankle_angle_r	subtalar_angle_r	mtp_angle_r	hip_flexion_l	hip_adduction_l	hip_rotation_l	knee_angle_l	knee_angle_l_beta	ankle_angle_l	subtalar_angle_l	mtp_angle_l	lumbar_extension	lumbar_bending	lumbar_rotation	arm_flex_r	arm_add_r	arm_rot_r	elbow_flex_r	pro_sup_r	wrist_flex_r	wrist_dev_r	arm_flex_l	arm_add_l	arm_rot_l	elbow_flex_l	pro_sup_l	wrist_flex_l	wrist_dev_l
      0.00500000	      0.65742259	      1.28881210	      0.04678634	      0.26553470	      0.91475056	     -1.21524642	      0.08589017	    -20.61520765	    -36.71939457	      9.59641849	      0.16748910	     -5.02939398	      4.37973169	      0.00000000	      1.83123774	    -18.08532625	    -39.13109785	     10.75281525	      0.18767203	     -3.21648256	     12.57429895	      0.00000000	     -6.36017294	     -0.75301812	     -1.70592834	     43.87890353	    -16.09102161	     43.87890353	     75.61243598	     44.92002759	      0.00000000	      0.00000000	     43.87890353	    -16.09102161	     43.87890353	     75.61243598	     44.92002759	      0.00000000	      0.00000000
      0.01000000	      0.61064548	      1.41753325	      0.06294043	      0.26514832	      0.91450410	     -1.21526869	      0.36248807	    -20.93675900	    -36.81932111	     10.10864063	      0.17642906	     -4.78210864	      4.47493148	      0.00000000	      2.00133604	    -18.01128860	    -39.13733464	     10.97315005	      0.19151760	     -3.12173242	     12.55190793	      0.00000000	     -6.38821981	     -0.82696683	     -1.58136522	     44.01640788	    -15.93261388	     44.01640788	     75.50809811	     44.94251371	      0.00000000	      0.00000000	     44.01640788	    -15.93261388	     44.01640788	     75.50809811	     44.94251371	      0.00000000	      0.00000000
      0.01500000	      0.56120133	      1.31373318	      0.08701208	      0.26468108	      0.91435642	     -1.21527380	      0.54093657	    -20.84598003	    -36.55575898	     10.27736195	      0.17937380	     -4.76190047	      4.02160158	      0.00000000	      2.21876726	    -18.23341838	    -39.13240560	     11.27563380	      0.19679694	     -2.98154459	     12.57702515	      0.00000000	     -6.45503257	     -0.64823716	     -1.50845435	     44.07032054	    -15.86415672	     44.07032054	     75.45582653	     44.95201076	      0.00000000	      0.00000000	     44.07032054	    -15.86415672	     44.07032054	     75.45582653	     44.95201076	      0.00000000	      0.00000000
      0.02000000	      0.45813767	      1.29080632	      0.13705481	      0.26422162	      0.91401569	     -1.21534282	      0.85008680	    -20.95402379	    -36.52191826	     10.68797976	      0.18654044	     -4.55162154	      3.94446737	      0.00000000	      2.52554199	    -18.38690562	    -39.13668756	     11.65616331	      0.20343843	     -2.86959082	     12.59157981	      0.00000000	     -6.43626026	     -0.56375477	     -1.55715556	     44.12085957	    -15.80111126	     44.12085957	     75.40903781	     44.95999231	      0.00000000	      0.00000000	     44.12085957	    -15.80111126	     44.12085957	     75.40903781	     44.95999231	      0.00000000	      0.00000000
      0.02500000	      0.40664455	      1.24748866	      0.07587588	      0.26360530	      0.91382037	     -1.21515178	      1.14796220	    -20.96727909	    -36.16773275	     11.00532928	      0.19207923	     -4.49944848	      3.40101308	      0.00000000	      2.70914638	    -18.53013398	    -39.13297518	     11.91205558	      0.20790459	     -2.75520368	     12.48601928	      0.00000000	     -6.53856531	     -0.56656464	     -1.36404555	     44.18543913	    -15.72341694	     44.18543913	     75.35498459	     44.96797819	      0.00000000	      0.00000000	     44.18543913	    -15.72341694	     44.18543913	     75.35498459	     44.96797819	      0.00000000	      0.00000000
      0.03000000	      0.31372655	      1.26412929	      0.08198504	      0.26298892	      0.91344293	     -1.21508219	      1.52092573	    -21.13421511	    -36.02893843	     11.50560646	      0.20081072	     -4.29668948	      3.20932567	      0.00000000	      2.99803258	    -18.63672336	    -39.12312179	     12.26914130	      0.21413691	     -2.62194308	     12.41648126	      0.00000000	     -6.55575684	     -0.58886927	     -1.32735641	     44.22791230	    -15.67321625	     44.22791230	     75.32092406	     44.97276769	      0.00000000	      0.00000000	     44.22791230	    -15.67321625	     44.22791230	     75.32092406	     44.97276769	      0.00000000	      0.00000000
      0.03500000	      0.20356861	      1.31335617	      0.07306296	      0.26237080	      0.91300657	     -1.21499278	      1.96004528	    -21.37463465	    -35.91906028	     12.10822941	      0.21132847	     -4.04747007	      3.07158575	      0.00000000	      3.30134713	    -18.71232780	    -39.12462154	     12.62351405	      0.22032188	     -2.51566637	     12.38184399	      0.00000000	     -6.58085206	     -0.68843016	     -1.30053971	     44.27668375	    -15.61670383	     44.27668375	     75.28370703	     44.97770558	      0.00000000	      0.00000000	     44.27668375	    -15.61670383	     44.27668375	     75.28370703	     44.97770558	      0.00000000	      0.00000000
